<svg width="25" height="24" viewBox="0 0 25 24" fill="none" xmlns="http://www.w3.org/2000/svg">
<g clip-path="url(#clip0_34_1774)">
<path fill-rule="evenodd" clip-rule="evenodd" d="M22.5503 19.5C22.5503 19.9142 22.2145 20.25 21.8003 20.25H3.80029C3.38608 20.25 3.05029 19.9142 3.05029 19.5V4.5C3.05029 4.08579 3.38608 3.75 3.80029 3.75C4.21451 3.75 4.55029 4.08579 4.55029 4.5V13.3472L9.30623 9.1875C9.57296 8.95401 9.96673 8.93915 10.2503 9.15187L15.7637 13.2872L21.3062 8.4375C21.5042 8.24149 21.7946 8.1714 22.0602 8.2555C22.3259 8.33959 22.523 8.56402 22.5721 8.83828C22.6212 9.11254 22.5143 9.39143 22.2944 9.5625L16.2944 14.8125C16.0276 15.046 15.6339 15.0608 15.3503 14.8481L9.83686 10.7147L4.55029 15.3403V18.75H21.8003C22.2145 18.75 22.5503 19.0858 22.5503 19.5Z" fill="#000"/>
</g>
<defs>
<clipPath id="clip0_34_1774">
<rect width="24" height="24" fill="white" transform="translate(0.800293)"/>
</clipPath>
</defs>
</svg>
