<svg width="25" height="25" viewBox="0 0 25 25" fill="none" xmlns="http://www.w3.org/2000/svg">
<path d="M8.91498 6.79C8.49498 6.79 8.16498 6.45 8.16498 6.04V3.25C8.16498 2.84 8.49498 2.5 8.91498 2.5C9.33498 2.5 9.66498 2.84 9.66498 3.25V6.03C9.66498 6.45 9.33498 6.79 8.91498 6.79Z" fill="#FFFBFF"/>
<path d="M16.335 6.79C15.915 6.79 15.585 6.45 15.585 6.04V3.25C15.585 2.83 15.925 2.5 16.335 2.5C16.755 2.5 17.085 2.84 17.085 3.25V6.03C17.085 6.45 16.755 6.79 16.335 6.79Z" fill="#FFFBFF"/>
<path d="M22.125 16.3202C22.125 16.4702 22.075 16.6202 21.945 16.7502C20.495 18.2102 17.915 20.8102 16.435 22.3002C16.305 22.4402 16.135 22.5002 15.965 22.5002C15.635 22.5002 15.315 22.2402 15.315 21.8602V18.3602C15.315 16.9002 16.555 15.6902 18.075 15.6902C19.025 15.6802 20.345 15.6802 21.475 15.6802C21.865 15.6802 22.125 15.9902 22.125 16.3202Z" fill="#FFFBFF"/>
<path d="M22.125 16.3202C22.125 16.4702 22.075 16.6202 21.945 16.7502C20.495 18.2102 17.915 20.8102 16.435 22.3002C16.305 22.4402 16.135 22.5002 15.965 22.5002C15.635 22.5002 15.315 22.2402 15.315 21.8602V18.3602C15.315 16.9002 16.555 15.6902 18.075 15.6902C19.025 15.6802 20.345 15.6802 21.475 15.6802C21.865 15.6802 22.125 15.9902 22.125 16.3202Z" fill="#FFFBFF"/>
<path d="M20.195 5C19.535 4.51 18.585 4.98 18.585 5.81V5.91C18.585 7.08 17.745 8.16 16.575 8.28C15.225 8.42 14.085 7.36 14.085 6.04V5C14.085 4.45 13.635 4 13.085 4H12.165C11.615 4 11.165 4.45 11.165 5V5.91C11.165 6.79 10.695 7.61 9.965 8.01C9.925 8.04 9.885 8.06 9.845 8.08C9.835 8.08 9.835 8.09 9.825 8.09C9.755 8.12 9.685 8.15 9.605 8.18C9.585 8.19 9.565 8.19 9.545 8.2C9.425 8.24 9.295 8.27 9.155 8.28H9.145C8.995 8.3 8.835 8.3 8.685 8.28H8.675C8.535 8.27 8.405 8.24 8.285 8.2C8.185 8.17 8.085 8.13 7.985 8.08C7.205 7.73 6.665 6.95 6.665 6.04V5.81C6.665 5.04 5.845 4.58 5.195 4.91C5.185 4.92 5.175 4.92 5.165 4.93H5.155C5.085 4.98 5.025 5.03 4.955 5.08C4.845 5.17 4.735 5.26 4.635 5.36C4.565 5.43 4.495 5.5 4.435 5.57C4.355 5.65 4.285 5.73 4.215 5.82C4.165 5.88 4.105 5.94 4.065 6.01C4.015 6.07 3.975 6.14 3.935 6.2C3.925 6.21 3.915 6.22 3.905 6.24C3.815 6.37 3.735 6.52 3.665 6.66C3.645 6.68 3.635 6.69 3.635 6.71C3.575 6.83 3.515 6.95 3.475 7.08C3.445 7.13 3.435 7.17 3.415 7.22C3.395 7.26 3.385 7.31 3.365 7.35C3.335 7.45 3.305 7.56 3.275 7.67C3.235 7.81 3.205 7.96 3.185 8.11C3.165 8.22 3.155 8.33 3.145 8.45C3.135 8.59 3.125 8.73 3.125 8.87V17.63C3.125 20.32 5.305 22.5 7.995 22.5H12.815C13.365 22.5 13.815 22.05 13.815 21.5V18.36C13.815 16.06 15.725 14.19 18.075 14.19C18.605 14.18 19.895 14.18 21.125 14.18C21.675 14.18 22.125 13.73 22.125 13.18V8.87C22.125 7.28 21.365 5.89 20.195 5ZM11.755 16.41C11.665 16.71 11.385 16.92 11.055 16.92H7.415C7.365 16.92 7.325 16.92 7.285 16.9C6.925 16.85 6.665 16.54 6.665 16.17C6.665 15.75 6.995 15.41 7.415 15.41H11.055C11.465 15.41 11.805 15.75 11.805 16.17C11.805 16.25 11.795 16.34 11.755 16.41ZM14.535 12.7C14.445 13 14.165 13.21 13.835 13.21H7.415C7.365 13.21 7.325 13.21 7.285 13.19C6.925 13.14 6.665 12.83 6.665 12.46C6.665 12.04 6.995 11.7 7.415 11.7H13.835C14.255 11.7 14.585 12.04 14.585 12.46C14.585 12.54 14.575 12.63 14.535 12.7Z" fill="#FFFBFF"/>
</svg>
