<svg width="25" height="25" viewBox="0 0 25 25" fill="none" xmlns="http://www.w3.org/2000/svg">
<path d="M8.625 6.25C8.215 6.25 7.875 5.91 7.875 5.5V2.5C7.875 2.09 8.215 1.75 8.625 1.75C9.035 1.75 9.375 2.09 9.375 2.5V5.5C9.375 5.91 9.035 6.25 8.625 6.25Z" fill="#5A6F82"/>
<path d="M16.625 6.25C16.215 6.25 15.875 5.91 15.875 5.5V2.5C15.875 2.09 16.215 1.75 16.625 1.75C17.035 1.75 17.375 2.09 17.375 2.5V5.5C17.375 5.91 17.035 6.25 16.625 6.25Z" fill="#5A6F82"/>
<path d="M15.625 12.25H7.625C7.215 12.25 6.875 11.91 6.875 11.5C6.875 11.09 7.215 10.75 7.625 10.75H15.625C16.035 10.75 16.375 11.09 16.375 11.5C16.375 11.91 16.035 12.25 15.625 12.25Z" fill="#5A6F82"/>
<path d="M12.625 16.25H7.625C7.215 16.25 6.875 15.91 6.875 15.5C6.875 15.09 7.215 14.75 7.625 14.75H12.625C13.035 14.75 13.375 15.09 13.375 15.5C13.375 15.91 13.035 16.25 12.625 16.25Z" fill="#5A6F82"/>
<path d="M15.625 23.25H9.625C4.005 23.25 2.875 20.6 2.875 16.32V10.15C2.875 5.41 4.475 3.48 8.585 3.25H16.625C20.775 3.48 22.375 5.41 22.375 10.15V16.5C22.375 16.91 22.035 17.25 21.625 17.25C21.215 17.25 20.875 16.91 20.875 16.5V10.15C20.875 5.79 19.425 4.91 16.585 4.75H8.625C5.825 4.91 4.375 5.79 4.375 10.15V16.32C4.375 20.15 5.105 21.75 9.625 21.75H15.625C16.035 21.75 16.375 22.09 16.375 22.5C16.375 22.91 16.035 23.25 15.625 23.25Z" fill="#5A6F82"/>
<path d="M15.625 23.25C15.525 23.25 15.435 23.23 15.335 23.19C15.055 23.07 14.875 22.8 14.875 22.5V19.5C14.875 17.08 16.205 15.75 18.625 15.75H21.625C21.925 15.75 22.205 15.93 22.315 16.21C22.435 16.49 22.365 16.81 22.155 17.03L16.155 23.03C16.015 23.17 15.825 23.25 15.625 23.25ZM18.625 17.25C17.045 17.25 16.375 17.92 16.375 19.5V20.69L19.815 17.25H18.625Z" fill="#5A6F82"/>
</svg>
