<svg width="25" height="32" viewBox="0 0 25 32" fill="none" xmlns="http://www.w3.org/2000/svg">
<path fill-rule="evenodd" clip-rule="evenodd" d="M20.1 7H17.85V6.25C17.85 5.83579 17.5142 5.5 17.1 5.5C16.6858 5.5 16.35 5.83579 16.35 6.25V7H8.84998V6.25C8.84998 5.83579 8.51419 5.5 8.09998 5.5C7.68576 5.5 7.34998 5.83579 7.34998 6.25V7H5.09998C4.27155 7 3.59998 7.67157 3.59998 8.5V23.5C3.59998 24.3284 4.27155 25 5.09998 25H20.1C20.9284 25 21.6 24.3284 21.6 23.5V8.5C21.6 7.67157 20.9284 7 20.1 7ZM7.34998 8.5V9.25C7.34998 9.66421 7.68576 10 8.09998 10C8.51419 10 8.84998 9.66421 8.84998 9.25V8.5H16.35V9.25C16.35 9.66421 16.6858 10 17.1 10C17.5142 10 17.85 9.66421 17.85 9.25V8.5H20.1V11.5H5.09998V8.5H7.34998ZM20.1 23.5H5.09998V13H20.1V23.5ZM11.1 15.25V21.25C11.1 21.6642 10.7642 22 10.35 22C9.93576 22 9.59998 21.6642 9.59998 21.25V16.4631L9.1856 16.6713C8.81488 16.8566 8.36409 16.7063 8.17873 16.3356C7.99337 15.9649 8.14363 15.5141 8.51435 15.3287L10.0144 14.5787C10.2469 14.4624 10.5232 14.4748 10.7444 14.6116C10.9656 14.7483 11.1002 14.9899 11.1 15.25ZM16.6462 18.1047L14.85 20.5H16.35C16.7642 20.5 17.1 20.8358 17.1 21.25C17.1 21.6642 16.7642 22 16.35 22H13.35C13.0659 22 12.8062 21.8395 12.6792 21.5854C12.5521 21.3313 12.5795 21.0273 12.75 20.8L15.4481 17.2028C15.6153 16.9802 15.6455 16.6833 15.5264 16.4316C15.4073 16.1799 15.1586 16.0149 14.8804 16.003C14.6022 15.9912 14.3404 16.1344 14.2003 16.375C14.0702 16.6146 13.8203 16.7647 13.5476 16.7671C13.275 16.7694 13.0225 16.6236 12.8883 16.3863C12.7541 16.1489 12.7593 15.8574 12.9019 15.625C13.4112 14.7435 14.449 14.3139 15.4324 14.5774C16.4157 14.8409 17.0996 15.7319 17.1 16.75C17.1016 17.2391 16.9421 17.7152 16.6462 18.1047Z" fill="#000"/>
</svg>
