<svg width="25" height="25" viewBox="0 0 25 25" fill="none" xmlns="http://www.w3.org/2000/svg">
<path d="M21.375 16.75H15.375C14.965 16.75 14.625 16.41 14.625 16C14.625 15.59 14.965 15.25 15.375 15.25H21.375C21.785 15.25 22.125 15.59 22.125 16C22.125 16.41 21.785 16.75 21.375 16.75Z" fill="#FFFBFF"/>
<path d="M21.375 20.75H15.375C14.965 20.75 14.625 20.41 14.625 20C14.625 19.59 14.965 19.25 15.375 19.25H21.375C21.785 19.25 22.125 19.59 22.125 20C22.125 20.41 21.785 20.75 21.375 20.75Z" fill="#FFFBFF"/>
<path d="M22.375 9.02V4.48C22.375 3.07 21.735 2.5 20.145 2.5H16.105C14.515 2.5 13.875 3.07 13.875 4.48V9.01C13.875 10.43 14.515 10.99 16.105 10.99H20.145C21.735 11 22.375 10.43 22.375 9.02Z" fill="#FFFBFF"/>
<path d="M10.875 9.02V4.48C10.875 3.07 10.235 2.5 8.645 2.5H4.605C3.015 2.5 2.375 3.07 2.375 4.48V9.01C2.375 10.43 3.015 10.99 4.605 10.99H8.645C10.235 11 10.875 10.43 10.875 9.02Z" fill="#FFFBFF"/>
<path d="M10.875 20.27V16.23C10.875 14.64 10.235 14 8.645 14H4.605C3.015 14 2.375 14.64 2.375 16.23V20.27C2.375 21.86 3.015 22.5 4.605 22.5H8.645C10.235 22.5 10.875 21.86 10.875 20.27Z" fill="#FFFBFF"/>
</svg>
