<svg width="25" height="25" viewBox="0 0 25 25" fill="none" xmlns="http://www.w3.org/2000/svg">
<path d="M20.145 11.75H16.105C14.095 11.75 13.125 10.77 13.125 8.77V4.73C13.125 2.72 14.105 1.75 16.105 1.75H20.145C22.155 1.75 23.125 2.73 23.125 4.73V8.77C23.125 10.77 22.145 11.75 20.145 11.75ZM16.105 3.25C14.925 3.25 14.625 3.55 14.625 4.73V8.77C14.625 9.95 14.925 10.25 16.105 10.25H20.145C21.325 10.25 21.625 9.95 21.625 8.77V4.73C21.625 3.55 21.325 3.25 20.145 3.25H16.105Z" fill="#5A6F82"/>
<path d="M8.645 11.75H4.605C2.595 11.75 1.625 10.86 1.625 9.02V4.48C1.625 2.64 2.605 1.75 4.605 1.75H8.645C10.655 1.75 11.625 2.64 11.625 4.48V9.01C11.625 10.86 10.645 11.75 8.645 11.75ZM4.605 3.25C3.265 3.25 3.125 3.63 3.125 4.48V9.01C3.125 9.87 3.265 10.24 4.605 10.24H8.645C9.985 10.24 10.125 9.86 10.125 9.01V4.48C10.125 3.62 9.985 3.25 8.645 3.25H4.605Z" fill="#5A6F82"/>
<path d="M8.645 23.25H4.605C2.595 23.25 1.625 22.27 1.625 20.27V16.23C1.625 14.22 2.605 13.25 4.605 13.25H8.645C10.655 13.25 11.625 14.23 11.625 16.23V20.27C11.625 22.27 10.645 23.25 8.645 23.25ZM4.605 14.75C3.425 14.75 3.125 15.05 3.125 16.23V20.27C3.125 21.45 3.425 21.75 4.605 21.75H8.645C9.825 21.75 10.125 21.45 10.125 20.27V16.23C10.125 15.05 9.825 14.75 8.645 14.75H4.605Z" fill="#5A6F82"/>
<path d="M21.375 16.75H15.375C14.965 16.75 14.625 16.41 14.625 16C14.625 15.59 14.965 15.25 15.375 15.25H21.375C21.785 15.25 22.125 15.59 22.125 16C22.125 16.41 21.785 16.75 21.375 16.75Z" fill="#5A6F82"/>
<path d="M21.375 20.75H15.375C14.965 20.75 14.625 20.41 14.625 20C14.625 19.59 14.965 19.25 15.375 19.25H21.375C21.785 19.25 22.125 19.59 22.125 20C22.125 20.41 21.785 20.75 21.375 20.75Z" fill="#5A6F82"/>
</svg>
