<svg width="25" height="25" viewBox="0 0 25 25" fill="none" xmlns="http://www.w3.org/2000/svg">
<path d="M17.375 2.5H7.375C4.615 2.5 2.375 4.73 2.375 7.48V13.46V14.46C2.375 17.21 4.615 19.44 7.375 19.44H8.875C9.145 19.44 9.505 19.62 9.675 19.84L11.175 21.83C11.835 22.71 12.915 22.71 13.575 21.83L15.075 19.84C15.265 19.59 15.565 19.44 15.875 19.44H17.375C20.135 19.44 22.375 17.21 22.375 14.46V7.48C22.375 4.73 20.135 2.5 17.375 2.5ZM13.375 14.25H7.375C6.965 14.25 6.625 13.91 6.625 13.5C6.625 13.09 6.965 12.75 7.375 12.75H13.375C13.785 12.75 14.125 13.09 14.125 13.5C14.125 13.91 13.785 14.25 13.375 14.25ZM17.375 9.25H7.375C6.965 9.25 6.625 8.91 6.625 8.5C6.625 8.09 6.965 7.75 7.375 7.75H17.375C17.785 7.75 18.125 8.09 18.125 8.5C18.125 8.91 17.785 9.25 17.375 9.25Z" fill="#FFFBFF"/>
</svg>
