<svg width="25" height="25" viewBox="0 0 25 25" fill="none" xmlns="http://www.w3.org/2000/svg">
<path d="M12.375 23.31C11.685 23.31 11.035 22.96 10.575 22.35L9.075 20.35C9.045 20.31 8.925 20.26 8.875 20.25H8.375C4.205 20.25 1.625 19.12 1.625 13.5V8.5C1.625 4.08 3.955 1.75 8.375 1.75H16.375C20.795 1.75 23.125 4.08 23.125 8.5V13.5C23.125 17.92 20.795 20.25 16.375 20.25H15.875C15.795 20.25 15.725 20.29 15.675 20.35L14.175 22.35C13.715 22.96 13.065 23.31 12.375 23.31ZM8.375 3.25C4.795 3.25 3.125 4.92 3.125 8.5V13.5C3.125 18.02 4.675 18.75 8.375 18.75H8.875C9.385 18.75 9.965 19.04 10.275 19.45L11.775 21.45C12.125 21.91 12.625 21.91 12.975 21.45L14.475 19.45C14.805 19.01 15.325 18.75 15.875 18.75H16.375C19.955 18.75 21.625 17.08 21.625 13.5V8.5C21.625 4.92 19.955 3.25 16.375 3.25H8.375Z" fill="#5A6F82"/>
<path d="M17.375 9.25H7.375C6.965 9.25 6.625 8.91 6.625 8.5C6.625 8.09 6.965 7.75 7.375 7.75H17.375C17.785 7.75 18.125 8.09 18.125 8.5C18.125 8.91 17.785 9.25 17.375 9.25Z" fill="#5A6F82"/>
<path d="M13.375 14.25H7.375C6.965 14.25 6.625 13.91 6.625 13.5C6.625 13.09 6.965 12.75 7.375 12.75H13.375C13.785 12.75 14.125 13.09 14.125 13.5C14.125 13.91 13.785 14.25 13.375 14.25Z" fill="#5A6F82"/>
</svg>
