<svg width="18" height="18" viewBox="0 0 18 18" fill="none" xmlns="http://www.w3.org/2000/svg">
<path fill-rule="evenodd" clip-rule="evenodd" d="M9.93761 9.00002C9.93761 9.51779 9.51788 9.93752 9.00011 9.93752C8.48234 9.93752 8.06261 9.51779 8.06261 9.00002C8.06261 8.48225 8.48234 8.06252 9.00011 8.06252C9.51788 8.06252 9.93761 8.48225 9.93761 9.00002ZM5.56261 8.06252C5.04484 8.06252 4.62511 8.48225 4.62511 9.00002C4.62511 9.51779 5.04484 9.93752 5.56261 9.93752C6.08038 9.93752 6.50011 9.51779 6.50011 9.00002C6.50011 8.48225 6.08038 8.06252 5.56261 8.06252ZM12.4376 8.06252C11.9198 8.06252 11.5001 8.48225 11.5001 9.00002C11.5001 9.51779 11.9198 9.93752 12.4376 9.93752C12.9554 9.93752 13.3751 9.51779 13.3751 9.00002C13.3751 8.48225 12.9554 8.06252 12.4376 8.06252ZM17.1251 9.00002C17.1257 11.8534 15.6296 14.4979 13.1835 15.9671C10.7374 17.4362 7.69993 17.5145 5.18136 16.1735L2.5212 17.0602C2.072 17.21 1.5767 17.0931 1.24187 16.7583C0.907033 16.4234 0.790147 15.9281 0.939953 15.4789L1.82667 12.8188C0.239059 9.83387 0.665727 6.17778 2.898 3.63867C5.13027 1.09955 8.70158 0.20809 11.8653 1.40029C15.0289 2.59249 17.1237 5.61917 17.1251 9.00002ZM15.8751 9.00002C15.8743 6.10963 14.0657 3.52842 11.3493 2.54078C8.63287 1.55314 5.5888 2.37001 3.73178 4.58492C1.87477 6.79983 1.60142 9.93972 3.04777 12.4422C3.13736 12.5973 3.15613 12.7833 3.09933 12.9531L2.12511 15.875L5.04698 14.9008C5.11062 14.8791 5.1774 14.868 5.24464 14.868C5.35441 14.8682 5.46219 14.8973 5.55714 14.9524C7.68436 16.1831 10.3068 16.1848 12.4356 14.9567C14.5643 13.7286 15.8757 11.4576 15.8751 9.00002Z" fill="#000"/>
</svg>
