<svg width="25" height="32" viewBox="0 0 25 32" fill="none" xmlns="http://www.w3.org/2000/svg">
<g clip-path="url(#clip0_27_737)">
<path fill-rule="evenodd" clip-rule="evenodd" d="M20.3 7H5.30005C4.47162 7 3.80005 7.67157 3.80005 8.5V23.5C3.80005 24.3284 4.47162 25 5.30005 25H20.3C21.1285 25 21.8 24.3284 21.8 23.5V8.5C21.8 7.67157 21.1285 7 20.3 7ZM20.3 23.5H5.30005V8.5H20.3V23.5ZM17.3 16C17.3 16.4142 16.9643 16.75 16.55 16.75H13.55V19.75C13.55 20.1642 13.2143 20.5 12.8 20.5C12.3858 20.5 12.05 20.1642 12.05 19.75V16.75H9.05005C8.63584 16.75 8.30005 16.4142 8.30005 16C8.30005 15.5858 8.63584 15.25 9.05005 15.25H12.05V12.25C12.05 11.8358 12.3858 11.5 12.8 11.5C13.2143 11.5 13.55 11.8358 13.55 12.25V15.25H16.55C16.9643 15.25 17.3 15.5858 17.3 16Z" fill="#000"/>
</g>
<defs>
<clipPath id="clip0_27_737">
<rect width="24" height="24" fill="white" transform="translate(0.800049 4)"/>
</clipPath>
</defs>
</svg>
