<svg width="27" height="26" viewBox="0 0 27 26" fill="none" xmlns="http://www.w3.org/2000/svg">
<circle cx="13.5" cy="13" r="12.5" fill="#39A7FF" stroke="#FFFBFF"/>
<path d="M15 18.375H12C9.285 18.375 8.125 17.215 8.125 14.5V11.5C8.125 8.785 9.285 7.625 12 7.625H13C13.205 7.625 13.375 7.795 13.375 8C13.375 8.205 13.205 8.375 13 8.375H12C9.695 8.375 8.875 9.195 8.875 11.5V14.5C8.875 16.805 9.695 17.625 12 17.625H15C17.305 17.625 18.125 16.805 18.125 14.5V13.5C18.125 13.295 18.295 13.125 18.5 13.125C18.705 13.125 18.875 13.295 18.875 13.5V14.5C18.875 17.215 17.715 18.375 15 18.375Z" fill="#FFFBFF"/>
<path d="M11.75 15.8453C11.445 15.8453 11.165 15.7353 10.96 15.5353C10.715 15.2903 10.61 14.9353 10.665 14.5603L10.88 13.0553C10.92 12.7653 11.11 12.3903 11.315 12.1853L15.255 8.24527C16.25 7.25027 17.26 7.25027 18.255 8.24527C18.8 8.79027 19.045 9.34527 18.995 9.90027C18.95 10.3503 18.71 10.7903 18.255 11.2403L14.315 15.1803C14.11 15.3853 13.735 15.5753 13.445 15.6153L11.94 15.8303C11.875 15.8453 11.81 15.8453 11.75 15.8453ZM15.785 8.77527L11.845 12.7153C11.75 12.8103 11.64 13.0303 11.62 13.1603L11.405 14.6653C11.385 14.8103 11.415 14.9303 11.49 15.0053C11.565 15.0803 11.685 15.1103 11.83 15.0903L13.335 14.8753C13.465 14.8553 13.69 14.7453 13.78 14.6503L17.72 10.7103C18.045 10.3853 18.215 10.0953 18.24 9.82527C18.27 9.50027 18.1 9.15527 17.72 8.77027C16.92 7.97027 16.37 8.19527 15.785 8.77527Z" fill="#FFFBFF"/>
<path d="M17.425 11.9151C17.39 11.9151 17.355 11.9101 17.325 11.9001C16.01 11.5301 14.965 10.4851 14.595 9.17014C14.54 8.97014 14.655 8.76514 14.855 8.70514C15.055 8.65014 15.26 8.76514 15.315 8.96514C15.615 10.0301 16.46 10.8751 17.525 11.1751C17.725 11.2301 17.84 11.4401 17.785 11.6401C17.74 11.8101 17.59 11.9151 17.425 11.9151Z" fill="#FFFBFF"/>
</svg>
