<svg width="20" height="20" viewBox="0 0 20 20" fill="none" xmlns="http://www.w3.org/2000/svg">
<path fill-rule="evenodd" clip-rule="evenodd" d="M19.3211 9.74687C19.2937 9.68516 18.632 8.21719 17.1609 6.74609C15.2008 4.78594 12.725 3.75 9.99999 3.75C7.27499 3.75 4.79921 4.78594 2.83906 6.74609C1.36796 8.21719 0.703118 9.6875 0.678899 9.74687C0.607034 9.90852 0.607034 10.093 0.678899 10.2547C0.706243 10.3164 1.36796 11.7836 2.83906 13.2547C4.79921 15.2141 7.27499 16.25 9.99999 16.25C12.725 16.25 15.2008 15.2141 17.1609 13.2547C18.632 11.7836 19.2937 10.3164 19.3211 10.2547C19.393 10.093 19.393 9.90852 19.3211 9.74687ZM9.99999 15C7.5953 15 5.49452 14.1258 3.75546 12.4023C3.0419 11.6927 2.43483 10.8836 1.95312 10C2.4347 9.11636 3.04179 8.30717 3.75546 7.59766C5.49452 5.87422 7.5953 5 9.99999 5C12.4047 5 14.5055 5.87422 16.2445 7.59766C16.9595 8.307 17.5679 9.11619 18.0508 10C17.4875 11.0516 15.0336 15 9.99999 15ZM9.99999 6.25C7.92892 6.25 6.24999 7.92893 6.24999 10C6.24999 12.0711 7.92892 13.75 9.99999 13.75C12.0711 13.75 13.75 12.0711 13.75 10C13.7478 7.92982 12.0702 6.25215 9.99999 6.25ZM9.99999 12.5C8.61928 12.5 7.49999 11.3807 7.49999 10C7.49999 8.61929 8.61928 7.5 9.99999 7.5C11.3807 7.5 12.5 8.61929 12.5 10C12.5 11.3807 11.3807 12.5 9.99999 12.5Z" fill="#0D1A1C"/>
</svg>
