<svg width="24" height="24" viewBox="0 0 24 24" fill="none" xmlns="http://www.w3.org/2000/svg">
<path fill-rule="evenodd" clip-rule="evenodd" d="M21.6484 19.875C20.2206 17.4065 18.0203 15.6365 15.4525 14.7975C18.0632 13.2433 19.3138 10.1364 18.5078 7.20688C17.7019 4.2774 15.038 2.24744 11.9996 2.24744C8.96131 2.24744 6.29743 4.2774 5.49146 7.20688C4.68549 10.1364 5.93609 13.2433 8.54683 14.7975C5.97902 15.6356 3.77871 17.4056 2.35089 19.875C2.20835 20.1074 2.20317 20.3989 2.33737 20.6362C2.47158 20.8736 2.72402 21.0194 2.99667 21.0171C3.26932 21.0147 3.51922 20.8646 3.64933 20.625C5.41558 17.5725 8.53746 15.75 11.9996 15.75C15.4618 15.75 18.5837 17.5725 20.35 20.625C20.4801 20.8646 20.73 21.0147 21.0026 21.0171C21.2753 21.0194 21.5277 20.8736 21.6619 20.6362C21.7961 20.3989 21.7909 20.1074 21.6484 19.875ZM6.74964 8.99999C6.74964 6.10049 9.10015 3.74999 11.9996 3.74999C14.8991 3.74999 17.2496 6.10049 17.2496 8.99999C17.2496 11.8995 14.8991 14.25 11.9996 14.25C9.10143 14.2469 6.75274 11.8982 6.74964 8.99999Z" fill="#0D1A1C"/>
</svg>
