<svg width="20" height="20" viewBox="0 0 20 20" fill="none" xmlns="http://www.w3.org/2000/svg">
<path fill-rule="evenodd" clip-rule="evenodd" d="M19.5306 18.4694L14.8365 13.7762C17.6629 10.383 17.3204 5.36691 14.0591 2.38933C10.7978 -0.588258 5.77132 -0.474022 2.64865 2.64865C-0.474022 5.77132 -0.588258 10.7978 2.38933 14.0591C5.36691 17.3204 10.383 17.6629 13.7762 14.8365L18.4694 19.5306C18.7624 19.8237 19.2375 19.8237 19.5306 19.5306C19.8237 19.2375 19.8237 18.7624 19.5306 18.4694ZM1.74998 8.49998C1.74998 4.77206 4.77206 1.74998 8.49998 1.74998C12.2279 1.74998 15.25 4.77206 15.25 8.49998C15.25 12.2279 12.2279 15.25 8.49998 15.25C4.77377 15.2458 1.75411 12.2262 1.74998 8.49998Z" fill="#0D171C"/>
</svg>
