<svg width="25" height="25" viewBox="0 0 25 25" fill="none" xmlns="http://www.w3.org/2000/svg">
<path d="M12.875 19.25C12.465 19.25 12.125 18.91 12.125 18.5V15.5C12.125 15.09 12.465 14.75 12.875 14.75C13.285 14.75 13.625 15.09 13.625 15.5V18.5C13.625 18.91 13.285 19.25 12.875 19.25Z" fill="#5A6F82"/>
<path d="M18.475 23.0598H7.27502C5.45502 23.0598 3.79502 21.6598 3.49502 19.8698L2.16502 11.8998C1.94502 10.6598 2.55502 9.06982 3.54502 8.27982L10.475 2.72982C11.815 1.64982 13.925 1.65982 15.275 2.73982L22.205 8.27982C23.185 9.06982 23.785 10.6598 23.585 11.8998L22.255 19.8598C21.955 21.6298 20.255 23.0598 18.475 23.0598ZM12.865 3.42982C12.335 3.42982 11.805 3.58982 11.415 3.89982L4.48502 9.45982C3.92502 9.90982 3.52502 10.9498 3.64502 11.6598L4.97502 19.6198C5.15502 20.6698 6.20502 21.5598 7.27502 21.5598H18.475C19.545 21.5598 20.595 20.6698 20.775 19.6098L22.105 11.6498C22.215 10.9498 21.815 9.88982 21.265 9.44982L14.335 3.90982C13.935 3.58982 13.395 3.42982 12.865 3.42982Z" fill="#5A6F82"/>
</svg>
