<svg width="25" height="24" viewBox="0 0 25 24" fill="none" xmlns="http://www.w3.org/2000/svg">
<g clip-path="url(#clip0_32_1051)">
<path fill-rule="evenodd" clip-rule="evenodd" d="M21.1154 9.72844L13.6154 2.65219C13.6117 2.64899 13.6083 2.64554 13.6051 2.64188C13.0329 2.1215 12.1589 2.1215 11.5867 2.64188L11.5763 2.65219L4.08479 9.72844C3.77583 10.0125 3.60003 10.4131 3.6001 10.8328V19.5C3.6001 20.3284 4.27167 21 5.1001 21H9.6001C10.4285 21 11.1001 20.3284 11.1001 19.5V15H14.1001V19.5C14.1001 20.3284 14.7717 21 15.6001 21H20.1001C20.9285 21 21.6001 20.3284 21.6001 19.5V10.8328C21.6002 10.4131 21.4244 10.0125 21.1154 9.72844ZM20.1001 19.5H15.6001V15C15.6001 14.1716 14.9285 13.5 14.1001 13.5H11.1001C10.2717 13.5 9.6001 14.1716 9.6001 15V19.5H5.1001V10.8328L5.11041 10.8234L12.6001 3.75L20.0907 10.8216L20.101 10.8309L20.1001 19.5Z" fill="#000"/>
</g>
<defs>
<clipPath id="clip0_32_1051">
<rect width="24" height="24" fill="white" transform="translate(0.600098)"/>
</clipPath>
</defs>
</svg>
