<svg width="48" height="48" viewBox="0 0 48 48" fill="none" xmlns="http://www.w3.org/2000/svg">
<path d="M10.0036 2.01244C11.8597 1.92228 13.4877 3.55757 13.4908 5.49132C13.497 8.95155 13.4908 24.1822 13.4908 27.6424C13.4908 29.1129 13.4815 30.5866 13.4939 32.0571C13.5432 37.3702 17.681 41.9093 22.9318 42.4191C28.6082 42.9725 33.6525 38.9993 34.4079 33.2944C34.8766 29.7471 33.7542 26.7066 31.229 24.1946C31.1797 24.1449 31.1242 24.1044 31.0008 24.0019C31.0008 24.1822 31.0008 24.3034 31.0008 24.4216C31.0008 26.8932 31.0008 29.3647 31.0008 31.8363C30.9978 35.3401 28.5404 38.2687 25.1302 38.847C20.94 39.5558 17.0212 36.2479 17.0088 31.9638C16.9934 27.9502 17.0057 23.9366 17.0119 19.9229C17.0119 19.7986 17.089 19.6152 17.1877 19.5561C18.1836 18.9778 19.2411 18.5457 20.3511 18.2472C20.382 18.2379 20.419 18.2472 20.496 18.2472C20.496 18.3871 20.496 18.5239 20.496 18.6607C20.496 23.0505 20.493 27.4403 20.496 31.8301C20.496 33.4437 21.4981 34.8116 22.9781 35.2593C25.2351 35.9463 27.4951 34.2737 27.5044 31.8768C27.5198 27.4745 27.5105 23.0723 27.5105 18.67C27.5105 18.5301 27.5105 18.3934 27.5105 18.2161C27.6955 18.2628 27.8405 18.2939 27.9823 18.3343C33.4798 19.9634 37.4727 24.9065 37.9506 30.6705C38.5642 38.0884 33.3966 44.7104 26.1138 45.8358C18.3902 47.0328 11.1444 41.5517 10.13 33.7359C10.0498 33.1203 10.0067 32.4923 10.0067 31.8705C9.99741 25.9978 10.0005 8.35464 10.0005 2.47877C10.0005 2.32644 10.0005 2.17721 10.0005 2L10.0036 2.01244Z" fill="url(#paint0_linear_620_5588)"/>
<defs>
<linearGradient id="paint0_linear_620_5588" x1="11.3541" y1="34.8489" x2="29.4219" y2="13.2801" gradientUnits="userSpaceOnUse">
<stop stop-color="#39A7FF"/>
<stop offset="1" stop-color="#7A8EF2"/>
</linearGradient>
</defs>
</svg>
