<svg width="25" height="24" viewBox="0 0 25 24" fill="none" xmlns="http://www.w3.org/2000/svg">
<g clip-path="url(#clip0_32_1072)">
<path fill-rule="evenodd" clip-rule="evenodd" d="M20.9939 16.4944C20.4736 15.5981 19.7002 13.0622 19.7002 9.75C19.7002 5.60786 16.3423 2.25 12.2002 2.25C8.05806 2.25 4.7002 5.60786 4.7002 9.75C4.7002 13.0631 3.92582 15.5981 3.40551 16.4944C3.13506 16.9581 3.13309 17.5311 3.40035 17.9967C3.66761 18.4623 4.16333 18.7496 4.7002 18.75H8.52613C8.88286 20.4956 10.4185 21.7492 12.2002 21.7492C13.9818 21.7492 15.5175 20.4956 15.8743 18.75H19.7002C20.2369 18.7493 20.7323 18.4619 20.9993 17.9963C21.2664 17.5308 21.2643 16.958 20.9939 16.4944ZM12.2002 20.25C11.2469 20.2497 10.3973 19.6487 10.0796 18.75H14.3208C14.0031 19.6487 13.1535 20.2497 12.2002 20.25ZM4.7002 17.25C5.42207 16.0088 6.2002 13.1325 6.2002 9.75C6.2002 6.43629 8.88649 3.75 12.2002 3.75C15.5139 3.75 18.2002 6.43629 18.2002 9.75C18.2002 13.1297 18.9764 16.0059 19.7002 17.25H4.7002Z" fill="#000"/>
</g>
<defs>
<clipPath id="clip0_32_1072">
<rect width="24" height="24" fill="white" transform="translate(0.200195)"/>
</clipPath>
</defs>
</svg>
