<svg width="25" height="32" viewBox="0 0 25 32" fill="none" xmlns="http://www.w3.org/2000/svg">
<g clip-path="url(#clip0_27_758)">
<path fill-rule="evenodd" clip-rule="evenodd" d="M22.0489 23.875C20.6211 21.4066 18.4208 19.6366 15.853 18.7975C18.4637 17.2433 19.7143 14.1364 18.9083 11.2069C18.1024 8.27741 15.4385 6.24745 12.4001 6.24745C9.36181 6.24745 6.69794 8.27741 5.89197 11.2069C5.086 14.1364 6.3366 17.2433 8.94733 18.7975C6.37952 19.6356 4.17921 21.4056 2.7514 23.875C2.60885 24.1074 2.60367 24.3989 2.73788 24.6363C2.87208 24.8736 3.12452 25.0194 3.39717 25.0171C3.66982 25.0147 3.91972 24.8646 4.04983 24.625C5.81608 21.5725 8.93796 19.75 12.4001 19.75C15.8623 19.75 18.9842 21.5725 20.7505 24.625C20.8806 24.8646 21.1305 25.0147 21.4031 25.0171C21.6758 25.0194 21.9282 24.8736 22.0624 24.6363C22.1966 24.3989 22.1914 24.1074 22.0489 23.875ZM7.15015 13C7.15015 10.1005 9.50065 7.75 12.4001 7.75C15.2996 7.75 17.6501 10.1005 17.6501 13C17.6501 15.8995 15.2996 18.25 12.4001 18.25C9.50194 18.2469 7.15325 15.8982 7.15015 13Z" fill="#000"/>
</g>
<defs>
<clipPath id="clip0_27_758">
<rect width="24" height="24" fill="white" transform="translate(0.400146 4)"/>
</clipPath>
</defs>
</svg>
