<svg width="25" height="25" viewBox="0 0 25 25" fill="none" xmlns="http://www.w3.org/2000/svg">
<path d="M12.245 14.0305C12.225 14.0305 12.195 14.0305 12.175 14.0305C12.145 14.0305 12.105 14.0305 12.075 14.0305C9.80498 13.9605 8.10498 12.1905 8.10498 10.0105C8.10498 7.79047 9.91498 5.98047 12.135 5.98047C14.355 5.98047 16.165 7.79047 16.165 10.0105C16.155 12.2005 14.445 13.9605 12.275 14.0305C12.255 14.0305 12.255 14.0305 12.245 14.0305ZM12.125 7.47047C10.725 7.47047 9.59498 8.61047 9.59498 10.0005C9.59498 11.3705 10.665 12.4805 12.025 12.5305C12.055 12.5205 12.155 12.5205 12.255 12.5305C13.595 12.4605 14.645 11.3605 14.655 10.0005C14.655 8.61047 13.525 7.47047 12.125 7.47047Z" fill="#5A6F82"/>
<path d="M12.125 23.2503C9.43496 23.2503 6.86496 22.2503 4.87496 20.4303C4.69496 20.2703 4.61496 20.0303 4.63496 19.8003C4.76496 18.6103 5.50496 17.5003 6.73496 16.6803C9.71496 14.7003 14.545 14.7003 17.515 16.6803C18.745 17.5103 19.485 18.6103 19.615 19.8003C19.645 20.0403 19.555 20.2703 19.375 20.4303C17.385 22.2503 14.815 23.2503 12.125 23.2503ZM6.20496 19.6003C7.86496 20.9903 9.95496 21.7503 12.125 21.7503C14.295 21.7503 16.385 20.9903 18.045 19.6003C17.865 18.9903 17.385 18.4003 16.675 17.9203C14.215 16.2803 10.045 16.2803 7.56496 17.9203C6.85496 18.4003 6.38496 18.9903 6.20496 19.6003Z" fill="#5A6F82"/>
<path d="M12.125 23.25C6.195 23.25 1.375 18.43 1.375 12.5C1.375 6.57 6.195 1.75 12.125 1.75C18.055 1.75 22.875 6.57 22.875 12.5C22.875 18.43 18.055 23.25 12.125 23.25ZM12.125 3.25C7.025 3.25 2.875 7.4 2.875 12.5C2.875 17.6 7.025 21.75 12.125 21.75C17.225 21.75 21.375 17.6 21.375 12.5C21.375 7.4 17.225 3.25 12.125 3.25Z" fill="#5A6F82"/>
</svg>
