<svg width="25" height="25" viewBox="0 0 25 25" fill="none" xmlns="http://www.w3.org/2000/svg">
<path d="M22.125 12.5C22.125 6.99 17.635 2.5 12.125 2.5C6.615 2.5 2.125 6.99 2.125 12.5C2.125 15.4 3.375 18.01 5.355 19.84C5.355 19.85 5.355 19.85 5.345 19.86C5.445 19.96 5.565 20.04 5.665 20.13C5.725 20.18 5.775 20.23 5.835 20.27C6.015 20.42 6.215 20.56 6.405 20.7C6.475 20.75 6.535 20.79 6.605 20.84C6.795 20.97 6.995 21.09 7.205 21.2C7.275 21.24 7.355 21.29 7.425 21.33C7.625 21.44 7.835 21.54 8.055 21.63C8.135 21.67 8.215 21.71 8.295 21.74C8.515 21.83 8.735 21.91 8.955 21.98C9.035 22.01 9.115 22.04 9.195 22.06C9.435 22.13 9.675 22.19 9.915 22.25C9.985 22.27 10.055 22.29 10.135 22.3C10.415 22.36 10.695 22.4 10.985 22.43C11.025 22.43 11.065 22.44 11.105 22.45C11.445 22.48 11.785 22.5 12.125 22.5C12.465 22.5 12.805 22.48 13.135 22.45C13.175 22.45 13.215 22.44 13.255 22.43C13.545 22.4 13.825 22.36 14.105 22.3C14.175 22.29 14.245 22.26 14.325 22.25C14.565 22.19 14.815 22.14 15.045 22.06C15.125 22.03 15.205 22 15.285 21.98C15.505 21.9 15.735 21.83 15.945 21.74C16.025 21.71 16.105 21.67 16.185 21.63C16.395 21.54 16.605 21.44 16.815 21.33C16.895 21.29 16.965 21.24 17.035 21.2C17.235 21.08 17.435 20.97 17.635 20.84C17.705 20.8 17.765 20.75 17.835 20.7C18.035 20.56 18.225 20.42 18.405 20.27C18.465 20.22 18.515 20.17 18.575 20.13C18.685 20.04 18.795 19.95 18.895 19.86C18.895 19.85 18.895 19.85 18.885 19.84C20.875 18.01 22.125 15.4 22.125 12.5ZM17.065 17.47C14.355 15.65 9.915 15.65 7.185 17.47C6.745 17.76 6.385 18.1 6.085 18.47C4.565 16.93 3.625 14.82 3.625 12.5C3.625 7.81 7.435 4 12.125 4C16.815 4 20.625 7.81 20.625 12.5C20.625 14.82 19.685 16.93 18.165 18.47C17.875 18.1 17.505 17.76 17.065 17.47Z" fill="#FFFBFF"/>
<path d="M12.125 7.42969C10.055 7.42969 8.375 9.10969 8.375 11.1797C8.375 13.2097 9.965 14.8597 12.075 14.9197C12.105 14.9197 12.145 14.9197 12.165 14.9197C12.185 14.9197 12.215 14.9197 12.235 14.9197C12.245 14.9197 12.255 14.9197 12.255 14.9197C14.275 14.8497 15.865 13.2097 15.875 11.1797C15.875 9.10969 14.195 7.42969 12.125 7.42969Z" fill="#FFFBFF"/>
</svg>
