<svg width="18" height="20" viewBox="0 0 18 20" fill="none" xmlns="http://www.w3.org/2000/svg">
<path fill-rule="evenodd" clip-rule="evenodd" d="M17.7936 14.4944C17.2733 13.5981 16.4999 11.0622 16.4999 7.75C16.4999 3.60786 13.142 0.25 8.99989 0.25C4.85775 0.25 1.49989 3.60786 1.49989 7.75C1.49989 11.0631 0.725515 13.5981 0.205203 14.4944C-0.0652439 14.9581 -0.0672108 15.5311 0.200045 15.9967C0.467301 16.4623 0.963024 16.7496 1.49989 16.75H5.32583C5.68256 18.4956 7.21824 19.7492 8.99989 19.7492C10.7815 19.7492 12.3172 18.4956 12.674 16.75H16.4999C17.0366 16.7493 17.532 16.4619 17.799 15.9963C18.0661 15.5307 18.064 14.958 17.7936 14.4944ZM8.99989 18.25C8.04663 18.2497 7.19702 17.6487 6.87927 16.75H11.1205C10.8028 17.6487 9.95315 18.2497 8.99989 18.25ZM1.49989 15.25C2.22177 14.0087 2.99989 11.1325 2.99989 7.75C2.99989 4.43629 5.68618 1.75 8.99989 1.75C12.3136 1.75 14.9999 4.43629 14.9999 7.75C14.9999 11.1297 15.7761 14.0059 16.4999 15.25H1.49989Z" fill="#0D1A1C"/>
</svg>
