<svg width="20" height="20" viewBox="0 0 20 20" fill="none" xmlns="http://www.w3.org/2000/svg">
<path fill-rule="evenodd" clip-rule="evenodd" d="M19.6489 17.875C18.2211 15.4065 16.0208 13.6365 13.4529 12.7975C16.0637 11.2433 17.3143 8.13637 16.5083 5.20688C15.7023 2.2774 13.0385 0.247437 10.0001 0.247437C6.9618 0.247437 4.29792 2.2774 3.49195 5.20688C2.68598 8.13637 3.93658 11.2433 6.54732 12.7975C3.97951 13.6356 1.77919 15.4056 0.351382 17.875C0.208835 18.1074 0.203659 18.3989 0.337863 18.6362C0.472067 18.8736 0.724507 19.0194 0.997156 19.0171C1.26981 19.0147 1.51971 18.8646 1.64982 18.625C3.41607 15.5725 6.53794 13.75 10.0001 13.75C13.4623 13.75 16.5842 15.5725 18.3504 18.625C18.4806 18.8646 18.7305 19.0147 19.0031 19.0171C19.2758 19.0194 19.5282 18.8736 19.6624 18.6362C19.7966 18.3989 19.7914 18.1074 19.6489 17.875ZM4.75013 6.99999C4.75013 4.10049 7.10064 1.74999 10.0001 1.74999C12.8996 1.74999 15.2501 4.10049 15.2501 6.99999C15.2501 9.89948 12.8996 12.25 10.0001 12.25C7.10192 12.2469 4.75323 9.8982 4.75013 6.99999Z" fill="#0D1A1C"/>
</svg>
