<svg width="24" height="24" viewBox="0 0 24 24" fill="none" xmlns="http://www.w3.org/2000/svg">
<g clip-path="url(#clip0_33_1131)">
<path fill-rule="evenodd" clip-rule="evenodd" d="M21.2991 9.795C21.9976 9.65288 22.4996 9.03878 22.5 8.32594V6C22.5 5.17157 21.8284 4.5 21 4.5H3C2.17157 4.5 1.5 5.17157 1.5 6V8.32594C1.50039 9.03878 2.00241 9.65288 2.70094 9.795C3.74526 10.0116 4.49406 10.9316 4.49406 11.9981C4.49406 13.0647 3.74526 13.9847 2.70094 14.2013C2.00103 14.3437 1.49861 14.9598 1.5 15.6741V18C1.5 18.8284 2.17157 19.5 3 19.5H21C21.8284 19.5 22.5 18.8284 22.5 18V15.6741C22.4996 14.9612 21.9976 14.3471 21.2991 14.205C20.2547 13.9884 19.5059 13.0684 19.5059 12.0019C19.5059 10.9353 20.2547 10.0153 21.2991 9.79875V9.795ZM3 15.675C4.74665 15.3192 6.00145 13.783 6.00145 12.0005C6.00145 10.2179 4.74665 8.68175 3 8.32594V6H8.25V18H3V15.675ZM21 15.675V18H9.75V6H21V8.325C19.2533 8.68081 17.9985 10.217 17.9985 11.9995C17.9985 13.7821 19.2533 15.3182 21 15.6741V15.675Z" fill="#0D1A1C"/>
</g>
<defs>
<clipPath id="clip0_33_1131">
<rect width="24" height="24" fill="white"/>
</clipPath>
</defs>
</svg>
