<svg width="26" height="48" viewBox="0 0 26 48" fill="none" xmlns="http://www.w3.org/2000/svg">
<path fill-rule="evenodd" clip-rule="evenodd" d="M24.8276 33.2837C25.1652 33.621 25.3549 34.0786 25.3549 34.5558C25.3549 35.033 25.1652 35.4907 24.8276 35.8279L14.0397 46.6158C13.7024 46.9535 13.2448 47.1432 12.7676 47.1432C12.2904 47.1432 11.8328 46.9535 11.4955 46.6158L0.707576 35.8279C0.00502664 35.1254 0.00502664 33.9863 0.707576 33.2837C1.41013 32.5812 2.54918 32.5812 3.25173 33.2837L12.7676 42.8019L22.2835 33.2837C22.6207 32.9461 23.0783 32.7564 23.5555 32.7564C24.0328 32.7564 24.4904 32.9461 24.8276 33.2837ZM3.25173 14.252L12.7676 4.73389L22.2835 14.252C22.986 14.9546 24.1251 14.9546 24.8276 14.252C25.5302 13.5495 25.5302 12.4104 24.8276 11.7079L14.0397 0.919905C13.7024 0.582283 13.2448 0.392578 12.7676 0.392578C12.2904 0.392578 11.8328 0.582283 11.4955 0.919905L0.707576 11.7079C0.00502664 12.4104 0.00502664 13.5495 0.707576 14.252C1.41013 14.9546 2.54918 14.9546 3.25173 14.252Z" fill="#4D8C99"/>
</svg>
