<svg width="20" height="20" viewBox="0 0 20 20" fill="none" xmlns="http://www.w3.org/2000/svg">
<g clip-path="url(#clip0_33_1157)">
<path fill-rule="evenodd" clip-rule="evenodd" d="M9.16016 12.3375C10.8801 11.1925 11.6474 9.05639 11.0493 7.07867C10.4512 5.10095 8.62868 3.7481 6.5625 3.7481C4.49632 3.7481 2.67381 5.10095 2.0757 7.07867C1.47758 9.05639 2.24494 11.1925 3.96484 12.3375C2.4496 12.896 1.15555 13.9294 0.275781 15.2836C0.149943 15.4706 0.13457 15.7109 0.23555 15.9125C0.33653 16.114 0.538214 16.2456 0.763359 16.2567C0.988504 16.2679 1.20222 16.157 1.32266 15.9664C2.47564 14.1931 4.44731 13.1232 6.5625 13.1232C8.67769 13.1232 10.6494 14.1931 11.8023 15.9664C11.9931 16.2499 12.3761 16.3277 12.6623 16.141C12.9485 15.9543 13.0318 15.5724 12.8492 15.2836C11.9694 13.9294 10.6754 12.896 9.16016 12.3375ZM3.125 8.4375C3.125 6.53902 4.66402 5 6.5625 5C8.46098 5 10 6.53902 10 8.4375C10 10.336 8.46098 11.875 6.5625 11.875C4.66491 11.8728 3.12715 10.3351 3.125 8.4375ZM19.5422 16.1484C19.2531 16.337 18.8659 16.2555 18.6773 15.9664C17.5257 14.1919 15.553 13.1222 13.4375 13.125C13.0923 13.125 12.8125 12.8452 12.8125 12.5C12.8125 12.1548 13.0923 11.875 13.4375 11.875C14.8219 11.8737 16.0705 11.042 16.6051 9.76498C17.1397 8.48795 16.8561 7.01483 15.8855 6.0276C14.915 5.04036 13.4469 4.73171 12.1609 5.24453C11.9522 5.33476 11.7109 5.30451 11.531 5.16554C11.351 5.02656 11.2607 4.8008 11.2952 4.57604C11.3297 4.35128 11.4835 4.16298 11.6969 4.08437C13.9257 3.19547 16.466 4.13334 17.5825 6.25736C18.699 8.38137 18.0312 11.0056 16.0352 12.3375C17.5504 12.896 18.8444 13.9294 19.7242 15.2836C19.9127 15.5727 19.8312 15.9599 19.5422 16.1484Z" fill="#0D1A1C"/>
</g>
<defs>
<clipPath id="clip0_33_1157">
<rect width="20" height="20" fill="white"/>
</clipPath>
</defs>
</svg>
